<svg width="136" height="40" viewBox="0 0 136 40" fill="none" xmlns="http://www.w3.org/2000/svg">
<g id="Group">
<g id="Group_2">
<g id="Group_3">
<path id="Vector" d="M124.587 0.00013H11.0945C10.6808 0.00013 10.2721 0.00013 9.85949 0.00213C9.5141 0.00413 9.17147 0.00994 8.82277 0.01483C8.06523 0.0227318 7.30946 0.0818063 6.56205 0.19154C5.81569 0.303663 5.09271 0.515046 4.41756 0.81854C3.74324 1.1246 3.12709 1.5223 2.59147 1.9972C2.05303 2.47077 1.60421 3.01815 1.26225 3.61829C0.919344 4.21724 0.681573 4.85907 0.557148 5.52161C0.43154 6.18332 0.363949 6.85265 0.354982 7.52361C0.344513 7.83021 0.343407 8.13783 0.337891 8.44447V31.5587C0.343407 31.8692 0.344513 32.17 0.354982 32.4806C0.363952 33.1516 0.431543 33.8209 0.557148 34.4825C0.68123 35.1455 0.919014 35.7877 1.26225 36.3868C1.60405 36.985 2.05294 37.5302 2.59147 38.0011C3.12506 38.4781 3.7416 38.8761 4.41756 39.1798C5.0927 39.4841 5.81561 39.6968 6.56205 39.8106C7.30959 39.9195 8.06528 39.9786 8.82277 39.9874C9.17147 39.9942 9.5141 39.9981 9.85949 39.9981C10.2721 40.0001 10.6808 40.0001 11.0945 40.0001H124.587C124.993 40.0001 125.405 40.0001 125.81 39.9981C126.154 39.9981 126.507 39.9942 126.85 39.9874C127.606 39.9791 128.361 39.92 129.107 39.8106C129.855 39.696 130.581 39.4834 131.259 39.1798C131.935 38.8759 132.551 38.478 133.084 38.0011C133.621 37.5284 134.071 36.9836 134.417 36.3868C134.758 35.7872 134.993 35.1451 135.115 34.4825C135.241 33.8208 135.311 33.1516 135.325 32.4806C135.329 32.17 135.329 31.8692 135.329 31.5587C135.338 31.1954 135.338 30.8341 135.338 30.4649V9.53626C135.338 9.17005 135.338 8.80677 135.329 8.44447C135.329 8.13783 135.329 7.83021 135.325 7.52357C135.311 6.85255 135.241 6.18337 135.115 5.52157C134.993 4.85941 134.757 4.21763 134.417 3.61825C133.72 2.41533 132.616 1.43616 131.259 0.81845C130.581 0.515697 129.855 0.30437 129.107 0.19145C128.361 0.0812328 127.606 0.0221378 126.85 0.01469C126.507 0.00981 126.154 0.00395 125.81 0.002C125.405 0 124.993 0 124.587 0V0.00013Z" fill="#CAD8DB"/>
<path id="Vector_2" d="M9.86545 39.125C9.52173 39.125 9.1863 39.1211 8.84527 39.1143C8.1388 39.1061 7.43398 39.0516 6.73659 38.9512C6.0863 38.8519 5.45636 38.6673 4.86752 38.4033C4.28408 38.1415 3.75194 37.7983 3.29148 37.3867C2.82436 36.98 2.43546 36.5082 2.14019 35.9902C1.84166 35.4688 1.63507 34.9099 1.5276 34.333C1.41154 33.7131 1.34874 33.0863 1.33976 32.458C1.33261 32.2471 1.32324 31.5449 1.32324 31.5449V8.44434C1.32324 8.44434 1.33322 7.75293 1.33981 7.5498C1.34842 6.92248 1.41085 6.29665 1.52656 5.67773C1.63423 5.09925 1.84098 4.53875 2.13967 4.01563C2.43385 3.49794 2.8206 3.02586 3.28491 2.61768C3.7487 2.20562 4.28254 1.8606 4.86697 1.59521C5.45445 1.33209 6.08321 1.14873 6.73217 1.05127C7.43185 0.949836 8.13912 0.894996 8.84805 0.88721L9.86601 0.875H125.805L126.835 0.8877C127.538 0.895099 128.239 0.94945 128.932 1.05029C129.587 1.14898 130.223 1.33362 130.817 1.59814C131.988 2.13299 132.94 2.97916 133.541 4.01807C133.835 4.53758 134.039 5.09351 134.145 5.66699C134.262 6.29099 134.328 6.92174 134.341 7.5542C134.345 7.8374 134.345 8.1416 134.345 8.44434C134.353 8.81934 134.353 9.17627 134.353 9.53613V30.4648C134.353 30.8281 134.353 31.1826 134.345 31.54C134.345 31.8652 134.345 32.1631 134.34 32.4697C134.327 33.0909 134.263 33.7104 134.147 34.3232C134.042 34.9043 133.837 35.4675 133.538 35.9932C133.241 36.5056 132.854 36.9733 132.392 37.3789C131.932 37.7927 131.398 38.1379 130.814 38.4014C130.221 38.6674 129.587 38.8527 128.932 38.9512C128.235 39.0522 127.53 39.1067 126.823 39.1143C126.493 39.1211 126.147 39.125 125.811 39.125L124.588 39.127L9.86545 39.125Z" fill="black"/>
</g>
<g id="&#60;Group&#62;">
<g id="&#60;Group&#62;_2">
<g id="&#60;Group&#62;_3">
<path id="&#60;Path&#62;" d="M28.2806 20.3013C28.2928 19.4666 28.5429 18.6483 29.0077 17.9223C29.4725 17.1964 30.137 16.5864 30.9392 16.1492C30.4296 15.5041 29.7572 14.9731 28.9756 14.5986C28.194 14.224 27.3246 14.0162 26.4365 13.9916C24.5421 13.8153 22.7055 14.9964 21.7401 14.9964C20.7561 14.9964 19.2697 14.0091 17.6692 14.0383C16.6339 14.0679 15.6249 14.3348 14.7406 14.8128C13.8562 15.2909 13.1267 15.9638 12.623 16.7661C10.4411 20.1145 12.0686 25.0356 14.1587 27.7422C15.2043 29.0676 16.4265 30.548 18.0256 30.4955C19.5904 30.438 20.1748 29.611 22.0637 29.611C23.935 29.611 24.4834 30.4955 26.1149 30.4621C27.794 30.438 28.852 29.1309 29.861 27.793C30.6123 26.8486 31.1904 25.8049 31.574 24.7005C30.5985 24.3347 29.766 23.7226 29.1803 22.9403C28.5947 22.158 28.2818 21.2402 28.2806 20.3013Z" fill="#CAD8DB"/>
<path id="&#60;Path&#62;_2" d="M25.1988 12.2113C26.1143 11.2371 26.5653 9.98494 26.4561 8.7207C25.0574 8.85092 23.7654 9.44348 22.8375 10.3803C22.3838 10.838 22.0363 11.3704 21.8149 11.9472C21.5935 12.524 21.5025 13.1337 21.5472 13.7417C22.2468 13.7481 22.9389 13.6137 23.5714 13.3486C24.204 13.0835 24.7604 12.6946 25.1988 12.2113Z" fill="#CAD8DB"/>
</g>
</g>
<g id="Group_4">
<path id="Vector_3" d="M48.061 27.1397H42.721L41.4386 30.4961H39.1768L44.2347 18.0781H46.5847L51.6427 30.4961H49.3423L48.061 27.1397ZM43.274 25.5908H47.5069L45.4202 20.1436H45.3618L43.274 25.5908Z" fill="#CAD8DB"/>
<path id="Vector_4" d="M62.5666 25.9695C62.5666 28.7829 60.8678 30.5905 58.3041 30.5905C57.6547 30.6207 57.0088 30.4881 56.4404 30.2079C55.8721 29.9278 55.4042 29.5114 55.0904 29.0065H55.0419V33.4909H52.9453V21.4421H54.9747V22.948H55.0133C55.3415 22.4455 55.8173 22.0313 56.39 21.7495C56.9627 21.4676 57.6108 21.3287 58.2655 21.3474C60.8578 21.3474 62.5666 23.1638 62.5666 25.9695ZM60.4117 25.9695C60.4117 24.1365 59.343 22.9314 57.7125 22.9314C56.1106 22.9314 55.0331 24.1618 55.0331 25.9695C55.0331 27.7937 56.1106 29.0154 57.7125 29.0154C59.343 29.0154 60.4117 27.8191 60.4117 25.9695Z" fill="#CAD8DB"/>
<path id="Vector_5" d="M73.8078 25.9694C73.8078 28.7829 72.109 30.5905 69.5453 30.5905C68.8959 30.6206 68.25 30.488 67.6817 30.2079C67.1133 29.9278 66.6454 29.5114 66.3316 29.0065H66.2831V33.4909H64.1865V21.4421H66.2159V22.948H66.2544C66.5827 22.4455 67.0585 22.0313 67.6312 21.7495C68.2038 21.4676 68.852 21.3287 69.5067 21.3474C72.0991 21.3474 73.8078 23.1638 73.8078 25.9694ZM71.6529 25.9694C71.6529 24.1364 70.5842 22.9314 68.9537 22.9314C67.3518 22.9314 66.2743 24.1618 66.2743 25.9694C66.2743 27.7937 67.3518 29.0153 68.9537 29.0153C70.5842 29.0153 71.6529 27.8191 71.6529 25.9694H71.6529Z" fill="#CAD8DB"/>
<path id="Vector_6" d="M81.238 27.0362C81.3933 28.2676 82.7429 29.0762 84.5872 29.0762C86.3543 29.0762 87.6257 28.2676 87.6257 27.1572C87.6257 26.1934 86.8589 25.6162 85.0433 25.2207L83.2277 24.833C80.6552 24.2822 79.4609 23.2158 79.4609 21.4854C79.4609 19.3428 81.5674 17.8711 84.5585 17.8711C87.5188 17.8711 89.5482 19.3428 89.6165 21.4854H87.5001C87.3734 20.2461 86.2177 19.4981 84.5288 19.4981C82.8398 19.4981 81.6841 20.2549 81.6841 21.3565C81.6841 22.2344 82.4223 22.751 84.228 23.1465L85.7715 23.4824C88.6459 24.0849 89.8401 25.1084 89.8401 26.9248C89.8401 29.248 87.7524 30.7031 84.4318 30.7031C81.325 30.7031 79.2273 29.2822 79.0918 27.0361L81.238 27.0362Z" fill="#CAD8DB"/>
<path id="Vector_7" d="M94.365 19.2998V21.4424H96.3074V22.9141H94.365V27.9053C94.365 28.6807 94.7539 29.042 95.6078 29.042C95.8384 29.0384 96.0686 29.0241 96.2974 28.999V30.4619C95.9136 30.5255 95.5234 30.5543 95.1329 30.5478C93.065 30.5478 92.2585 29.8593 92.2585 28.1035V22.9141H90.7734V21.4424H92.2585V19.2998H94.365Z" fill="#CAD8DB"/>
<path id="Vector_8" d="M97.4326 25.9697C97.4326 23.1211 99.3254 21.3311 102.277 21.3311C105.238 21.3311 107.122 23.1211 107.122 25.9697C107.122 28.8262 105.248 30.6084 102.277 30.6084C99.3066 30.6084 97.4326 28.8262 97.4326 25.9697ZM104.986 25.9697C104.986 24.0156 103.976 22.8623 102.277 22.8623C100.578 22.8623 99.5688 24.0244 99.5688 25.9697C99.5688 27.9316 100.578 29.0762 102.277 29.0762C103.976 29.0762 104.986 27.9316 104.986 25.9697H104.986Z" fill="#CAD8DB"/>
<path id="Vector_9" d="M108.851 21.442H110.85V22.983H110.899C111.034 22.5017 111.352 22.0764 111.8 21.7785C112.247 21.4806 112.796 21.3284 113.356 21.3473C113.597 21.3465 113.838 21.3698 114.074 21.4166V23.1549C113.769 23.0723 113.451 23.0343 113.132 23.0426C112.827 23.0316 112.524 23.0792 112.242 23.1821C111.96 23.285 111.707 23.4408 111.499 23.6386C111.291 23.8365 111.135 24.0719 111.039 24.3286C110.944 24.5852 110.913 24.8571 110.947 25.1256V30.4957H108.851L108.851 21.442Z" fill="#CAD8DB"/>
<path id="Vector_10" d="M123.74 27.8369C123.458 29.4805 121.652 30.6084 119.342 30.6084C116.371 30.6084 114.526 28.8437 114.526 26.0127C114.526 23.1729 116.381 21.3311 119.254 21.3311C122.08 21.3311 123.857 23.0518 123.857 25.7969V26.4336H116.643V26.5459C116.609 26.8791 116.657 27.2148 116.781 27.5306C116.905 27.8464 117.104 28.1352 117.364 28.3778C117.624 28.6203 117.939 28.8111 118.288 28.9374C118.638 29.0637 119.013 29.1226 119.39 29.1103C119.886 29.1515 120.383 29.0498 120.808 28.8203C121.233 28.5909 121.563 28.246 121.749 27.8369L123.74 27.8369ZM116.653 25.1348H121.759C121.778 24.8352 121.727 24.5354 121.609 24.2541C121.491 23.9729 121.308 23.7164 121.073 23.5006C120.838 23.2849 120.555 23.1145 120.242 23.0003C119.929 22.8861 119.592 22.8305 119.254 22.8369C118.912 22.8351 118.574 22.8933 118.258 23.008C117.942 23.1227 117.655 23.2918 117.413 23.5054C117.171 23.7191 116.98 23.973 116.849 24.2527C116.719 24.5323 116.652 24.8321 116.653 25.1348V25.1348Z" fill="#CAD8DB"/>
</g>
</g>
</g>
<g id="&#60;Group&#62;_4">
<g id="Group_5">
<path id="Vector_11" d="M43.0116 8.7304C43.4511 8.70244 43.8922 8.7613 44.303 8.90274C44.7137 9.04417 45.084 9.26465 45.387 9.54828C45.69 9.8319 45.9182 10.1716 46.0552 10.5429C46.1921 10.9141 46.2344 11.3077 46.179 11.6952C46.179 13.6015 45.0167 14.6972 43.0116 14.6972H40.5801V8.7304H43.0116ZM41.6256 13.8534H42.8948C43.2089 13.87 43.5232 13.8244 43.8149 13.7198C44.1065 13.6152 44.3682 13.4542 44.5809 13.2487C44.7935 13.0431 44.9518 12.7981 45.0441 12.5315C45.1365 12.2648 45.1606 11.9833 45.1147 11.7074C45.1573 11.4326 45.1307 11.1528 45.0369 10.8881C44.9432 10.6235 44.7845 10.3805 44.5723 10.1765C44.3602 9.97261 44.0998 9.8128 43.8097 9.70856C43.5197 9.60433 43.2073 9.55824 42.8948 9.57361H41.6256V13.8534Z" fill="#CAD8DB"/>
<path id="Vector_12" d="M47.36 12.4438C47.328 12.1479 47.3662 11.8493 47.4721 11.5672C47.578 11.2852 47.7492 11.0258 47.9747 10.8059C48.2003 10.5859 48.4752 10.4101 48.7819 10.2898C49.0886 10.1696 49.4203 10.1074 49.7556 10.1074C50.091 10.1074 50.4227 10.1696 50.7294 10.2898C51.0361 10.4101 51.311 10.5859 51.5366 10.8059C51.7621 11.0258 51.9333 11.2852 52.0392 11.5672C52.1451 11.8493 52.1833 12.1479 52.1513 12.4438C52.1839 12.74 52.1461 13.039 52.0406 13.3215C51.935 13.6041 51.7639 13.8639 51.5382 14.0843C51.3126 14.3047 51.0375 14.4808 50.7305 14.6014C50.4235 14.7219 50.0914 14.7842 49.7556 14.7842C49.4199 14.7842 49.0878 14.7219 48.7808 14.6014C48.4738 14.4808 48.1987 14.3047 47.9731 14.0843C47.7474 13.8639 47.5763 13.6041 47.4707 13.3215C47.3652 13.039 47.3274 12.74 47.36 12.4438ZM51.1201 12.4438C51.1201 11.4677 50.6254 10.8969 49.7573 10.8969C48.8858 10.8969 48.3956 11.4677 48.3956 12.4438C48.3956 13.4277 48.8859 13.9941 49.7573 13.9941C50.6255 13.9941 51.1201 13.4238 51.1201 12.4438H51.1201Z" fill="#CAD8DB"/>
<path id="Vector_13" d="M58.5202 14.6973H57.4802L56.4302 11.3809H56.3509L55.3054 14.6973H54.2753L52.875 10.1943H53.8919L54.8019 13.6303H54.8768L55.9213 10.1943H56.8831L57.9275 13.6303H58.0068L58.9124 10.1943H59.915L58.5202 14.6973Z" fill="#CAD8DB"/>
<path id="Vector_14" d="M61.0928 10.1939H62.0579V10.9092H62.1328C62.2599 10.6523 62.4742 10.4369 62.746 10.2931C63.0177 10.1493 63.3333 10.0842 63.6488 10.107C63.8959 10.0905 64.1441 10.1235 64.375 10.2036C64.6058 10.2837 64.8133 10.4088 64.9822 10.5697C65.151 10.7305 65.2769 10.923 65.3505 11.1328C65.424 11.3426 65.4434 11.5644 65.4071 11.7818V14.6968H64.4045V12.0049C64.4045 11.2813 64.0498 10.9214 63.3083 10.9214C63.1405 10.9145 62.973 10.9398 62.8172 10.9957C62.6615 11.0515 62.5212 11.1365 62.406 11.2449C62.2908 11.3533 62.2034 11.4825 62.1497 11.6236C62.0961 11.7647 62.0776 11.9145 62.0953 12.0625V14.6968H61.0928L61.0928 10.1939Z" fill="#CAD8DB"/>
<path id="Vector_15" d="M67.0049 8.43652H68.0074V14.6973H67.0049V8.43652Z" fill="#CAD8DB"/>
<path id="Vector_16" d="M69.401 12.4439C69.369 12.1479 69.4073 11.8494 69.5131 11.5673C69.619 11.2852 69.7903 11.0259 70.0159 10.8059C70.2415 10.5859 70.5164 10.4101 70.8231 10.2898C71.1298 10.1696 71.4615 10.1074 71.7969 10.1074C72.1323 10.1074 72.464 10.1696 72.7707 10.2898C73.0774 10.4101 73.3524 10.5859 73.578 10.8059C73.8036 11.0259 73.9748 11.2852 74.0807 11.5673C74.1866 11.8494 74.2248 12.1479 74.1929 12.4439C74.2254 12.7401 74.1876 13.0391 74.082 13.3216C73.9764 13.6042 73.8052 13.864 73.5796 14.0844C73.3539 14.3048 73.0788 14.4809 72.7718 14.6014C72.4647 14.722 72.1327 14.7842 71.7969 14.7842C71.4611 14.7842 71.1291 14.722 70.8221 14.6014C70.5151 14.4809 70.2399 14.3048 70.0142 14.0844C69.7886 13.864 69.6175 13.6042 69.5118 13.3216C69.4062 13.0391 69.3685 12.7401 69.401 12.4439ZM73.1611 12.4439C73.1611 11.4678 72.6664 10.897 71.7983 10.897C70.9268 10.897 70.4366 11.4678 70.4366 12.4439C70.4366 13.4278 70.9269 13.9942 71.7983 13.9942C72.6664 13.9942 73.1611 13.4239 73.1611 12.4439H73.1611Z" fill="#CAD8DB"/>
<path id="Vector_17" d="M75.248 13.4238C75.248 12.6133 75.9289 12.146 77.1375 12.0796L78.5135 12.0093V11.6206C78.5135 11.145 78.1588 10.8765 77.4735 10.8765C76.9138 10.8765 76.526 11.0586 76.4148 11.377H75.4442C75.5466 10.6035 76.3674 10.1074 77.5198 10.1074C78.7934 10.1074 79.5117 10.6694 79.5117 11.6206V14.6973H78.5466V14.0645H78.4673C78.3063 14.2914 78.0802 14.4765 77.8121 14.6007C77.544 14.7249 77.2436 14.7838 76.9414 14.7715C76.7281 14.7911 76.5126 14.7709 76.3087 14.7122C76.1047 14.6535 75.9169 14.5576 75.7574 14.4307C75.5979 14.3037 75.4701 14.1485 75.3824 13.9751C75.2946 13.8017 75.2489 13.6139 75.248 13.4238ZM78.5135 13.0391V12.6626L77.273 12.7329C76.5734 12.7744 76.2561 12.9853 76.2561 13.3823C76.2561 13.7876 76.6527 14.0234 77.1981 14.0234C77.3579 14.0378 77.5193 14.0235 77.6728 13.9814C77.8262 13.9393 77.9685 13.8703 78.0912 13.7784C78.214 13.6866 78.3146 13.5738 78.3872 13.4468C78.4597 13.3198 78.5027 13.1811 78.5135 13.0391Z" fill="#CAD8DB"/>
<path id="Vector_18" d="M80.8301 12.4439C80.8301 11.021 81.6553 10.1196 82.9388 10.1196C83.2562 10.1067 83.5713 10.1741 83.8472 10.314C84.1231 10.4539 84.3483 10.6605 84.4966 10.9096H84.5715V8.43652H85.5741V14.6973H84.6134V13.9858H84.5341C84.3743 14.2333 84.1412 14.4374 83.86 14.5758C83.5788 14.7143 83.2602 14.782 82.9388 14.7715C81.6465 14.7715 80.8301 13.8701 80.8301 12.4439ZM81.8657 12.4439C81.8657 13.3989 82.3736 13.9737 83.2231 13.9737C84.068 13.9737 84.5903 13.3907 84.5903 12.4478C84.5903 11.5093 84.0626 10.918 83.2231 10.918C82.3791 10.918 81.8657 11.4966 81.8657 12.4439H81.8657Z" fill="#CAD8DB"/>
<path id="Vector_19" d="M89.7213 12.4438C89.6894 12.1479 89.7275 11.8493 89.8334 11.5672C89.9393 11.2852 90.1105 11.0258 90.3361 10.8059C90.5616 10.5859 90.8366 10.4101 91.1432 10.2898C91.4499 10.1696 91.7816 10.1074 92.117 10.1074C92.4523 10.1074 92.784 10.1696 93.0907 10.2898C93.3974 10.4101 93.6723 10.5859 93.8979 10.8059C94.1235 11.0258 94.2947 11.2852 94.4005 11.5672C94.5064 11.8493 94.5446 12.1479 94.5127 12.4438C94.5452 12.74 94.5075 13.039 94.4019 13.3215C94.2963 13.6041 94.1252 13.8639 93.8996 14.0843C93.6739 14.3047 93.3988 14.4808 93.0918 14.6014C92.7848 14.7219 92.4527 14.7842 92.117 14.7842C91.7812 14.7842 91.4492 14.7219 91.1422 14.6014C90.8352 14.4808 90.56 14.3047 90.3344 14.0843C90.1088 13.8639 89.9377 13.6041 89.8321 13.3215C89.7265 13.039 89.6888 12.74 89.7213 12.4438ZM93.4814 12.4438C93.4814 11.4677 92.9868 10.8969 92.1186 10.8969C91.2472 10.8969 90.7569 11.4677 90.7569 12.4438C90.7569 13.4277 91.2472 13.9941 92.1186 13.9941C92.9868 13.9941 93.4814 13.4238 93.4814 12.4438Z" fill="#CAD8DB"/>
<path id="Vector_20" d="M95.8584 10.1939H96.8235V10.9092H96.8984C97.0255 10.6523 97.2399 10.4369 97.5116 10.2931C97.7834 10.1493 98.0989 10.0842 98.4144 10.107C98.6616 10.0905 98.9098 10.1235 99.1406 10.2036C99.3714 10.2837 99.5789 10.4088 99.7478 10.5697C99.9167 10.7305 100.043 10.923 100.116 11.1328C100.19 11.3426 100.209 11.5644 100.173 11.7818V14.6968H99.1702V12.0049C99.1702 11.2813 98.8154 10.9214 98.074 10.9214C97.9061 10.9145 97.7386 10.9398 97.5829 10.9957C97.4271 11.0515 97.2868 11.1365 97.1716 11.2449C97.0564 11.3533 96.969 11.4825 96.9154 11.6236C96.8617 11.7647 96.8432 11.9145 96.861 12.0625V14.6968H95.8584V10.1939Z" fill="#CAD8DB"/>
<path id="Vector_21" d="M105.837 9.07324V10.2148H106.938V10.9634H105.837V13.2788C105.837 13.7505 106.057 13.957 106.556 13.957C106.684 13.9567 106.811 13.9498 106.938 13.9365V14.6768C106.758 14.7053 106.576 14.7205 106.393 14.7222C105.278 14.7222 104.834 14.3745 104.834 13.5063V10.9633H104.027V10.2148H104.834V9.07324H105.837Z" fill="#CAD8DB"/>
<path id="Vector_22" d="M108.308 8.43652H109.301V10.918H109.381C109.514 10.6587 109.734 10.4421 110.011 10.2977C110.289 10.1534 110.609 10.0883 110.93 10.1113C111.176 10.0995 111.421 10.1359 111.65 10.2179C111.878 10.2999 112.083 10.4256 112.25 10.586C112.417 10.7463 112.542 10.9373 112.616 11.1455C112.69 11.3536 112.712 11.5737 112.679 11.79V14.6973H111.676V12.0093C111.676 11.29 111.298 10.9258 110.589 10.9258C110.417 10.9132 110.244 10.9342 110.081 10.9873C109.919 11.0404 109.772 11.1242 109.65 11.2329C109.528 11.3417 109.435 11.4727 109.376 11.6168C109.317 11.761 109.295 11.9147 109.31 12.0674V14.6973H108.308L108.308 8.43652Z" fill="#CAD8DB"/>
<path id="Vector_23" d="M118.525 13.4815C118.388 13.8931 118.093 14.249 117.691 14.4872C117.288 14.7253 116.804 14.8305 116.323 14.7842C115.989 14.7921 115.656 14.7353 115.349 14.6177C115.041 14.5002 114.766 14.3248 114.543 14.1036C114.32 13.8825 114.154 13.6209 114.056 13.3371C113.958 13.0533 113.931 12.754 113.977 12.46C113.932 12.1652 113.96 11.8652 114.057 11.5805C114.155 11.2959 114.32 11.0331 114.542 10.81C114.764 10.587 115.038 10.4088 115.344 10.2876C115.651 10.1664 115.983 10.105 116.319 10.1075C117.732 10.1075 118.585 10.9635 118.585 12.3775V12.6876H114.998V12.7374C114.982 12.9026 115.006 13.069 115.067 13.2257C115.128 13.3825 115.225 13.5262 115.353 13.6476C115.48 13.7691 115.635 13.8656 115.807 13.931C115.978 13.9964 116.164 14.0292 116.351 14.0274C116.591 14.0529 116.834 14.0146 117.049 13.9174C117.264 13.8202 117.442 13.6685 117.56 13.4815L118.525 13.4815ZM114.998 12.0303H117.564C117.577 11.8792 117.553 11.7274 117.496 11.5847C117.438 11.442 117.348 11.3115 117.23 11.2016C117.112 11.0918 116.97 11.005 116.812 10.9468C116.654 10.8886 116.484 10.8604 116.313 10.8638C116.14 10.8619 115.968 10.8908 115.807 10.9487C115.647 11.0067 115.501 11.0925 115.378 11.2012C115.256 11.3099 115.159 11.4393 115.094 11.5817C115.028 11.7241 114.996 11.8766 114.998 12.0303H114.998Z" fill="#CAD8DB"/>
</g>
</g>
</g>
</svg>
